<svg xmlns="http://www.w3.org/2000/svg" viewBox="0 0 340 100" width="340" height="100" role="img" aria-label="UnityLAN">
  <!-- Woven U mark -->
  <g transform="translate(6 6) scale(0.88)">
    <g fill="none" stroke="#2FAE7C" stroke-width="1.9" stroke-linecap="round" opacity="0.5">
      <path d="M26 24 34 66M26 24 50 72M26 24 66 66"/>
    </g>
    <path d="M26 24 24 46 34 66 50 72 66 66 76 46 74 24" fill="none" stroke="#5865F2" stroke-width="3.4" stroke-linecap="round" stroke-linejoin="round"/>
    <g fill="#5865F2">
      <circle cx="24" cy="46" r="5"/><circle cx="34" cy="66" r="5"/><circle cx="50" cy="72" r="5"/><circle cx="66" cy="66" r="5"/><circle cx="76" cy="46" r="5"/><circle cx="74" cy="24" r="5"/>
    </g>
    <circle cx="26" cy="24" r="6" fill="#2FAE7C"/>
  </g>

  <!-- Wordmark, outlined from Inter Bold (font-independent) -->
  <path fill="#5865F2" d="M122.85 64.47Q118.69 64.47 115.58 62.93Q112.47 61.39 110.75 58.65Q109.03 55.91 109.03 52.25L109.03 30.53L115.88 30.53L115.88 51.69Q115.88 53.65 116.75 55.16Q117.61 56.68 119.17 57.54Q120.73 58.41 122.85 58.41Q124.93 58.41 126.50 57.54Q128.06 56.68 128.92 55.16Q129.79 53.65 129.79 51.69L129.79 30.53L136.66 30.53L136.66 52.25Q136.66 55.91 134.93 58.65Q133.20 61.39 130.09 62.93Q126.98 64.47 122.85 64.47ZM148.78 49.47L148.78 64.00L142.04 64.00L142.04 38.89L148.40 38.89L148.51 45.16L148.11 45.16Q149.10 42.01 151.11 40.29Q153.12 38.57 156.31 38.57Q158.91 38.57 160.84 39.71Q162.78 40.84 163.85 42.97Q164.93 45.09 164.93 48.03L164.93 64.00L158.19 64.00L158.19 49.20Q158.19 46.86 156.99 45.54Q155.79 44.21 153.66 44.21Q152.24 44.21 151.13 44.83Q150.02 45.45 149.40 46.62Q148.78 47.78 148.78 49.47ZM170.18 64.00L170.18 38.89L176.92 38.89L176.92 64.00L170.18 64.00ZM173.55 35.61Q172.02 35.61 170.95 34.60Q169.87 33.59 169.87 32.15Q169.87 30.71 170.95 29.70Q172.02 28.69 173.55 28.69Q175.08 28.69 176.17 29.69Q177.26 30.69 177.26 32.15Q177.26 33.59 176.17 34.60Q175.08 35.61 173.55 35.61ZM194.61 38.89L194.61 44.03L179.72 44.03L179.72 38.89L194.61 38.89ZM183.18 32.91L189.92 32.91L189.92 56.66Q189.92 57.85 190.45 58.42Q190.97 58.99 192.21 58.99Q192.59 58.99 193.29 58.89Q193.98 58.79 194.34 58.70L195.31 63.75Q194.19 64.09 193.07 64.22Q191.96 64.36 190.95 64.36Q187.18 64.36 185.18 62.52Q183.18 60.68 183.18 57.24L183.18 32.91ZM199.32 72.89L200.87 67.82L201.71 68.02Q203.05 68.38 204.11 68.22Q205.16 68.07 205.80 67.37Q206.44 66.67 206.58 65.42L206.76 64.07L197.33 38.89L204.49 38.89L208.71 51.92Q209.48 54.39 209.96 56.86Q210.44 59.33 211.07 62.02L209.50 62.02Q210.11 59.33 210.71 56.85Q211.32 54.36 212.13 51.92L216.53 38.89L223.60 38.89L212.94 66.96Q212.17 68.99 210.98 70.47Q209.79 71.95 208.02 72.76Q206.24 73.57 203.73 73.57Q202.38 73.57 201.21 73.38Q200.04 73.19 199.32 72.89Z"/>
  <path fill="#5865F2" d="M226.97 64.00L226.97 30.53L233.82 30.53L233.82 58.32L248.26 58.32L248.26 64.00L226.97 64.00ZM250.55 64.00L261.98 30.53L270.96 30.53L282.69 64.00L275.07 64.00L269.71 47.85Q268.74 44.73 267.74 41.01Q266.74 37.29 265.64 32.89L267.12 32.89Q266.07 37.32 265.13 41.06Q264.20 44.80 263.28 47.85L258.12 64.00L250.55 64.00ZM257.69 56.23L257.69 50.86L275.54 50.86L275.54 56.23L257.69 56.23ZM286.32 64.00L286.32 30.53L293.96 30.53L304.54 47.47Q305.34 48.77 306.18 50.30Q307.01 51.83 307.87 53.69Q308.74 55.55 309.59 57.89L308.89 57.89Q308.74 56.03 308.61 53.92Q308.49 51.80 308.40 49.87Q308.31 47.94 308.31 46.59L308.31 30.53L315.32 30.53L315.32 64.00L307.66 64.00L298.04 48.64Q296.99 46.91 296.09 45.28Q295.19 43.65 294.22 41.67Q293.24 39.70 291.89 36.98L292.77 36.98Q292.90 39.41 293.04 41.63Q293.17 43.85 293.25 45.66Q293.33 47.47 293.33 48.61L293.33 64.00L286.32 64.00Z"/>
</svg>
